<?xml version="1.0" encoding="UTF-8" standalone="no"?>
<svg
   xmlns:dc="http://purl.org/dc/elements/1.1/"
   xmlns:cc="http://creativecommons.org/ns#"
   xmlns:rdf="http://www.w3.org/1999/02/22-rdf-syntax-ns#"
   xmlns:svg="http://www.w3.org/2000/svg"
   xmlns="http://www.w3.org/2000/svg"
   xmlns:sodipodi="http://sodipodi.sourceforge.net/DTD/sodipodi-0.dtd"
   xmlns:inkscape="http://www.inkscape.org/namespaces/inkscape"
   inkscape:version="1.0 (4035a4fb49, 2020-05-01)"
   sodipodi:docname="success_logo_edited.svg"
   id="svg921"
   version="1.1"
   fill="none"
   viewBox="0 0 96 77"
   height="77"
   width="96">
  <metadata
     id="metadata927">
    <rdf:RDF>
      <cc:Work
         rdf:about="">
        <dc:format>image/svg+xml</dc:format>
        <dc:type
           rdf:resource="http://purl.org/dc/dcmitype/StillImage" />
        <dc:title></dc:title>
      </cc:Work>
    </rdf:RDF>
  </metadata>
  <defs
     id="defs925" />
  <sodipodi:namedview
     inkscape:current-layer="svg921"
     inkscape:window-maximized="1"
     inkscape:window-y="-9"
     inkscape:window-x="2391"
     inkscape:cy="38.273862"
     inkscape:cx="48"
     inkscape:zoom="8.8441558"
     showgrid="false"
     id="namedview923"
     inkscape:window-height="881"
     inkscape:window-width="1708"
     inkscape:pageshadow="2"
     inkscape:pageopacity="0"
     guidetolerance="10"
     gridtolerance="10"
     objecttolerance="10"
     borderopacity="1"
     bordercolor="#666666"
     pagecolor="#ffffff" />
  <path
     id="path881"
     fill="#27AE60"
     d="M70.6273 20.5619C69.9212 19.8545 68.7755 19.8533 68.0694 20.5589L46.3669 42.204L38.5367 33.6997C37.8602 32.9653 36.7162 32.9176 35.9806 33.5941C35.2455 34.2707 35.1984 35.4152 35.875 36.1503L44.9806 46.0392C45.314 46.4016 45.7807 46.6121 46.2728 46.6223C46.286 46.6228 46.2988 46.6228 46.3114 46.6228C46.7896 46.6228 47.2497 46.4329 47.5886 46.0952L70.6238 23.1204C71.3317 22.4149 71.3329 21.2692 70.6273 20.5619Z" />
  <path
     id="path883"
     fill="#27AE60"
     d="M70.1909 36.1909C69.1917 36.1909 68.3819 37.0007 68.3819 38C68.3819 49.239 59.239 58.3819 48 58.3819C36.7616 58.3819 27.6181 49.239 27.6181 38C27.6181 26.7616 36.7616 17.6181 48 17.6181C48.9992 17.6181 49.8091 16.8083 49.8091 15.8091C49.8091 14.8098 48.9992 14 48 14C34.7662 14 24 24.7662 24 38C24 51.2332 34.7662 62 48 62C61.2332 62 72 51.2332 72 38C72 37.0008 71.1901 36.1909 70.1909 36.1909Z" />
  <g
     id="g919"
     opacity="0.3">
    <path
       d="m 92.916016,50.416016 c -0.8514,0 -1.541016,0.689515 -1.541016,1.541015 0,0.612252 0.359836,1.135953 0.876953,1.384766 -0.01178,-0.1364 -0.01483,-0.271037 -0.03906,-0.515625 -0.05517,-0.556937 0.201949,-0.875807 0.484375,-0.916016 0.282426,-0.04021 0.58997,0.197992 0.634765,0.75586 0.01982,0.246842 0.05075,0.496173 0.07227,0.746093 0.611084,-0.204831 1.054687,-0.775082 1.054687,-1.455078 0,-0.8515 -0.691468,-1.541015 -1.542968,-1.541015 z"
       id="path885" />
    <path
       d="m 75.083984,41.626953 c -0.8515,0 -1.541015,0.691569 -1.541015,1.542969 0,0.76183 0.553109,1.390814 1.279297,1.515625 -0.04736,-0.02772 -0.0918,-0.04317 -0.140625,-0.08008 C 74.276657,44.29935 74.508227,44.483152 74,44.044922 c -0.635777,-0.548212 -0.3481,-1.132458 0.195312,-1.083984 0.181138,0.01616 0.390419,0.101832 0.603516,0.283203 0.426319,0.362844 0.237182,0.21551 0.5625,0.457031 0.396147,0.294104 0.472641,0.628975 0.371094,0.861328 0.525769,-0.245526 0.892578,-0.773938 0.892578,-1.392578 0,-0.8514 -0.689616,-1.542969 -1.541016,-1.542969 z"
       id="path887" />
    <path
       d="m 86.75,62.75 c -0.8514,0 -1.542969,0.689616 -1.542969,1.541016 0,0.8514 0.691569,1.542968 1.542969,1.542968 0.8514,0 1.541016,-0.691568 1.541016,-1.542968 C 88.291016,63.439616 87.6014,62.75 86.75,62.75 Z m 0.587891,0.324219 c 0.282412,0.04743 0.492244,0.36383 0.339843,0.902343 -0.126888,0.448364 -0.186726,0.947453 -0.447265,1.347657 -0.06029,0.09261 -0.15022,0.16242 -0.22461,0.24414 -0.753467,0.827759 -0.115655,-1.834375 -0.705078,-0.882812 -0.02727,0.04404 -0.100641,0.181142 -0.08203,0.132812 0.02704,-0.07019 0.08025,-0.129078 0.107422,-0.199218 0.09757,-0.251875 0.169748,-0.56657 0.236328,-0.828125 0.138058,-0.542368 0.492979,-0.764232 0.775391,-0.716797 z"
       id="path889" />
    <path
       d="m 92.916016,70.251953 c -1.703,0 -3.083985,1.380985 -3.083985,3.083985 0,1.702899 1.380985,3.083984 3.083985,3.083984 1.703,0 3.083984,-1.381084 3.083984,-3.083984 0,-1.703001 -1.380984,-3.083985 -3.083984,-3.083985 z m 0.06445,1.677735 c 0.209601,-0.0049 0.447904,0.154965 0.617187,0.539062 0.08601,0.195158 0.285976,0.630325 0.353516,0.851562 0.03658,0.119818 0.05021,0.245521 0.08008,0.367188 0.0033,-0.0019 0.0065,-0.0039 0.0098,-0.0059 0.0043,-0.0026 -0.0066,0.01852 -0.0078,0.01367 -6.54e-4,-0.0026 -0.0013,-0.0052 -0.002,-0.0078 -0.318511,0.189446 -0.633827,0.382828 -0.951172,0.574219 -0.958501,0.578072 1.690803,-1.475046 0.798828,-0.798828 -0.29233,0.221621 -0.545713,0.506414 -0.876953,0.664062 -0.06753,0.03215 -0.0569,-0.138647 -0.07617,-0.210937 -0.01656,-0.06214 -0.01065,-0.127914 -0.0293,-0.189454 -0.03585,-0.118302 -0.220451,-0.556477 -0.269531,-0.675781 -0.266137,-0.646979 0.0042,-1.11294 0.353516,-1.121093 z"
       id="path891" />
    <path
       d="m 75.083984,55.501953 c -1.7029,0 -3.083984,1.380984 -3.083984,3.083985 0,1.703 1.381084,3.083984 3.083984,3.083984 1.703,0 3.083985,-1.380985 3.083985,-3.083984 0,-1.703 -1.380985,-3.083985 -3.083985,-3.083985 z m 0.277344,2.173828 c 0.279648,-2.07e-4 0.540068,0.279158 0.507813,0.837891 -0.02009,0.348108 0.01023,0.700487 0.158203,1.019531 0.470968,1.015421 -0.659215,1.468524 -1.050782,0.419922 -0.172646,-0.462326 -0.277911,-0.940921 -0.238281,-1.439453 0.04435,-0.557903 0.343399,-0.837683 0.623047,-0.837891 z"
       id="path893" />
    <path
       d="m 92.916016,30.835938 c -1.703,0 -3.083985,1.379031 -3.083985,3.082031 0,1.703 1.380985,3.083984 3.083985,3.083984 1.703,0 3.083984,-1.380984 3.083984,-3.083984 0,-1.703 -1.380984,-3.082031 -3.083984,-3.082031 z m -0.673828,2.242187 c 0.153202,0.01949 0.331946,0.118524 0.519531,0.326172 0.406526,0.450006 1.900365,1.825387 0.710937,2.429687 -0.350239,0.177942 -0.994043,-0.197676 -1.316406,-0.357422 -0.789226,-0.391096 -0.624275,-1.103293 -0.03906,-1.138671 -0.0046,-0.0054 -0.0071,-0.0082 -0.01172,-0.01367 -0.541608,-0.641416 -0.322889,-1.304566 0.136719,-1.246094 z"
       id="path895" />
    <path
       d="m 3.0839844,38.082031 c -0.85144,0 -1.5429688,0.689516 -1.5429688,1.541016 0,0.640065 0.3918429,1.188786 0.9472656,1.421875 0,-0.559663 0.2817807,-0.839844 0.5644532,-0.839844 0.2826725,0 0.5664062,0.280181 0.5664062,0.839844 V 41.0625 C 4.2053569,40.84425 4.625,40.285274 4.625,39.623047 c 0,-0.8515 -0.6895856,-1.541016 -1.5410156,-1.541016 z"
       id="path897" />
    <path
       d="m 12.333984,56.582031 c -0.714969,0 -1.310028,0.490153 -1.484375,1.150391 0.381012,-0.0206 0.763106,-0.04656 1.144532,-0.04687 0.417217,-3.48e-4 0.832836,0.02746 1.24414,0.121094 0.181118,0.04123 0.353117,0.118874 0.529297,0.177734 0.03921,0.0131 0.06239,0.03392 0.09766,0.04883 -0.04845,-0.807837 -0.71123,-1.451172 -1.53125,-1.451172 z m -0.08789,2.234375 c -0.219418,-0.0048 -0.437512,0.0021 -0.628906,0.0078 -0.210461,0.0063 -0.420515,0.02423 -0.63086,0.03516 0.261609,0.47868 0.763711,0.806641 1.347656,0.806641 0.490402,0 0.922716,-0.233032 1.205078,-0.589844 -0.05715,-0.01142 -0.108119,-0.01265 -0.169921,-0.0332 -0.163027,-0.05421 -0.320552,-0.12492 -0.488282,-0.16211 -0.194607,-0.04315 -0.415348,-0.05964 -0.634765,-0.06445 z"
       id="path899" />
    <path
       d="M 3.0839844,70.251953 C 1.3810044,70.251953 0,71.632938 0,73.335938 c 0,1.702899 1.3810044,3.083984 3.0839844,3.083984 1.70297,0 3.0839844,-1.381084 3.0839844,-3.083984 0,-1.703001 -1.3810144,-3.083985 -3.0839844,-3.083985 z m 0.5800781,0.537109 c 0.2282613,0.0014 0.4872604,0.163326 0.6621094,0.544922 0.1515427,0.330731 0.094534,0.109993 -0.6601563,0.164063 -0.018826,0.121093 -0.025688,0.152617 -0.041016,0.236328 0.3197054,-0.140103 0.9937141,-0.381236 0.9511719,-0.08984 -0.00826,0.05656 -0.030143,0.110375 -0.042969,0.166016 0.017361,-0.0032 0.028931,-0.0087 0.046875,-0.01172 0.06194,-0.01035 -0.00848,0.12487 -0.00391,0.1875 0.010642,0.145785 0.025489,0.293201 0.048828,0.4375 0.030045,0.185757 0.074466,0.368208 0.1113281,0.552734 0.2192691,1.097641 -0.8857122,1.343635 -1.1054687,0.246094 C 3.5357027,72.74741 3.490881,72.592154 3.453125,72.119141 c -0.00106,-0.01328 -0.00672,-0.03024 -0.00977,-0.04492 -0.030354,-0.05096 -0.061769,-0.111748 -0.1230469,-0.226563 -0.3293972,-0.617177 -0.036685,-1.060964 0.34375,-1.058594 z"
       id="path901" />
    <path
       d="m 20.916016,49.335938 c -1.703,0 -3.083985,1.380984 -3.083985,3.083984 0,1.7029 1.380985,3.083984 3.083985,3.083984 1.703,0 3.083984,-1.381084 3.083984,-3.083984 0,-1.703 -1.380984,-3.083984 -3.083984,-3.083984 z m -0.509766,0.36914 c 0.282166,3.6e-5 0.58406,0.277774 0.625,0.835938 0.05267,0.718142 0.0558,0.690228 0.06055,0.728515 0.469448,-0.03229 0.832366,0.577323 0.275391,1.148438 -0.324596,0.332838 -0.394598,0.501731 -1.103516,0.27539 -0.147587,-0.04712 -0.171503,-0.261291 -0.220703,-0.408203 -0.03501,-0.104634 -0.01705,-0.220212 -0.02734,-0.330078 -0.100385,-1.072113 -0.02241,-0.08228 -0.115234,-1.414062 -0.03891,-0.558309 0.223693,-0.835974 0.505859,-0.835938 z"
       id="path903" />
    <path
       d="M 3.0839844,24.667969 C 1.3810044,24.667969 0,26.049053 0,27.751953 c 0,1.703 1.3810044,3.083985 3.0839844,3.083985 1.70297,0 3.0839844,-1.380985 3.0839844,-3.083985 0,-0.549496 -0.1562599,-1.059039 -0.4082032,-1.505859 -0.1272563,0.129153 -0.253489,0.25919 -0.3847656,0.384765 -1.4597358,1.348628 -0.072135,0.04802 -1.4140625,1.357422 -0.1615229,0.157608 -0.3321635,0.305715 -0.4921875,0.464844 -0.028215,0.02806 -0.050095,0.08977 -0.074219,0.105469 0.1229672,0.208388 0.1689281,0.32577 -0.076172,0.08594 -0.2712451,-0.265416 -0.6134751,-0.471798 -0.8125,-0.794922 -0.050524,-0.08203 0.119548,-0.152413 0.1875,-0.220703 0.00844,-0.0085 0.016875,-0.01698 0.025391,-0.02539 -0.1014704,-0.154036 -0.079313,-0.135969 0.015625,-0.01172 0.1399493,-0.136922 0.2875601,-0.26561 0.4277344,-0.402344 0.2343212,-0.228571 0.459174,-0.468619 0.6953125,-0.695312 1.594037,-1.530276 0.4055047,-0.347136 1.171875,-1.115235 C 4.4971441,24.941924 3.8262932,24.667969 3.0839844,24.667969 Z"
       id="path905" />
    <path
       d="m 69.351562,0 c -1.703,0 -3.082031,1.3810144 -3.082031,3.0839844 0,1.70298 1.379032,3.0839844 3.082031,3.0839844 1.703001,0 3.083985,-1.3810044 3.083985,-3.0839844 C 72.435547,1.3810144 71.054563,0 69.351562,0 Z m -1.08789,2.1816406 c 0.273848,-0.038517 0.615223,0.1936993 0.759766,0.734375 0.05721,0.2139993 0.12637,0.4273685 0.175781,0.6445313 0.06431,0.049315 0.125967,0.1032685 0.191406,0.1503906 0.255132,0.2105868 0.496151,0.4371494 0.71875,0.6816406 0.753559,0.8276706 -0.106109,1.5994556 -0.841797,0.7558594 C 69.097677,4.9536163 68.902754,4.7835982 68.708984,4.6132812 68.556682,4.4852011 68.372429,4.388128 68.246094,4.234375 68.091991,4.046828 68.154194,4.0161256 68.115234,3.8515625 68.05349,3.5907834 67.962067,3.3379471 67.904297,3.0761719 67.783688,2.5296591 67.989824,2.2201573 68.263672,2.1816406 Z"
       id="path907" />
    <path
       d="m 81.134766,1.5410156 c -0.8514,0 -1.541016,0.6915388 -1.541016,1.5429688 0,0.85144 0.689616,1.5410156 1.541016,1.5410156 0.507737,0 0.955443,-0.2482078 1.236328,-0.6269531 -0.537851,-0.1572467 -1.073478,-0.173897 -1.640625,-0.1542969 -1.118659,0.03866 -1.118255,-1.0818994 0,-1.1308594 0.24625,-0.010782 0.479986,-0.011297 0.705078,-0.00195 0.424527,0.017622 0.821374,0.083814 1.224609,0.203125 -0.08567,-0.770323 -0.732239,-1.3730469 -1.52539,-1.3730469 z"
       id="path909" />
    <path
       d="m 86.75,10.792969 c -0.8514,0 -1.542969,0.689615 -1.542969,1.541015 0,0.8514 0.691569,1.541016 1.542969,1.541016 0.02545,0 0.04907,-0.0066 0.07422,-0.0078 -0.06679,-0.120125 -0.130703,-0.244125 -0.189453,-0.332032 -0.102073,-0.152728 -0.219166,-0.294619 -0.324219,-0.445312 -0.113097,-0.162232 -0.220461,-0.329538 -0.330078,-0.494141 -0.387768,-0.582277 -0.133296,-1.080889 0.238281,-1.130859 0.222946,-0.02998 0.487994,0.1022 0.681641,0.474609 0.175219,0.336971 0.437887,0.614115 0.646484,0.927735 0.0834,0.125389 0.151739,0.260298 0.230469,0.388671 0.02829,0.04612 0.05991,0.08988 0.08984,0.134766 0.261304,-0.276203 0.423828,-0.646427 0.423828,-1.056641 0,-0.8514 -0.689616,-1.541015 -1.541016,-1.541015 z m 0.710938,2.466797 c -0.09848,0.0072 -0.02605,0.197849 0.05859,0.402343 0.110835,-0.06438 0.215547,-0.137568 0.306641,-0.226562 -0.04056,-0.02633 -0.08219,-0.05078 -0.123047,-0.07617 -0.118842,-0.07384 -0.196214,-0.102978 -0.242187,-0.09961 z"
       id="path911" />
    <path
       d="m 26.648438,6.1660156 c -1.703,0 -3.083985,1.3810044 -3.083985,3.0839844 0,0.2299877 0.02842,0.4523504 0.07617,0.6679688 0.02837,-0.021672 0.06135,-0.050424 0.08789,-0.070313 0.106493,-0.079808 0.217684,-0.1553458 0.326172,-0.2324218 0.197178,-0.020401 -0.0046,0.011596 0.363281,-0.296875 0.127805,-0.1071706 0.26927,-0.1991615 0.398437,-0.3046875 0.151323,-0.1236278 0.292292,-0.2588722 0.44336,-0.3828125 0.451794,-0.370665 1.004202,-0.7863169 1.464843,-1.1386719 0.222263,-0.1700142 0.424792,-0.2388581 0.591797,-0.234375 0.501016,0.013449 0.669698,0.6794819 0.0059,1.1933594 -0.193168,0.1495308 -0.474845,0.3726468 -0.75586,0.5917969 0.04215,-0.016069 0.05511,-0.020071 0.09961,-0.037109 0.687919,-0.2634098 0.905502,-0.3904881 0.550781,-0.1953125 -0.98068,0.5395913 1.672327,0.2817685 0.720703,0.8710937 -0.379233,0.2348533 -0.142061,0.1018513 -0.871094,0.3808594 -0.939264,0.359466 -1.878549,0.720843 -2.798828,1.126953 0.565423,0.693017 1.416676,1.144531 2.38086,1.144531 1.702999,0 3.082031,-1.380994 3.082031,-3.083984 0,-1.70298 -1.379032,-3.0839844 -3.082031,-3.0839844 z"
       id="path913" />
    <path
       d="m 14.865234,1.5410156 c -0.677266,0 -1.24803,0.4397561 -1.455078,1.046875 0.235461,-0.1020569 0.477609,-0.2097897 0.699219,-0.3105468 0.127369,-0.05791 0.242676,-0.090082 0.345703,-0.1035157 C 15.17627,2.0797927 15.276419,2.9697838 14.384766,3.375 14.050995,3.526684 13.771781,3.6495505 13.496094,3.7792969 13.751057,4.2790877 14.265633,4.625 14.865234,4.625 c 0.8514,0 1.541016,-0.6895756 1.541016,-1.5410156 0,-0.85143 -0.689616,-1.5429688 -1.541016,-1.5429688 z"
       id="path915" />
    <path
       d="m 9.25,16.958984 c -0.85143,0 -1.5410156,0.689616 -1.5410156,1.541016 0,0.8514 0.6895856,1.542969 1.5410156,1.542969 0.85146,0 1.542969,-0.691569 1.542969,-1.542969 0,-0.173975 -0.03477,-0.338134 -0.08789,-0.494141 -0.484253,0.364229 -0.283053,0.206384 -0.683594,0.527344 -0.8734855,0.699937 -1.5815856,-0.184209 -0.7070309,-0.882812 0.3836663,-0.306477 0.349511,-0.2773 0.65625,-0.50586 C 9.7551013,17.029854 9.5112384,16.958984 9.25,16.958984 Z"
       id="path917" />
  </g>
</svg>
